<svg xmlns="http://www.w3.org/2000/svg" viewBox="0 0 400 300">
  <defs>
    <linearGradient id="sky" x1="0" y1="0" x2="0" y2="1">
      <stop offset="0" stop-color="#d9e1ea"/>
      <stop offset="1" stop-color="#b9c6d6"/>
    </linearGradient>
  </defs>
  <rect width="400" height="300" fill="url(#sky)"/>
  <rect x="0" y="230" width="400" height="70" fill="#c3cedb"/>
  <rect x="60" y="40" width="90" height="190" fill="#0f2440"/>
  <rect x="170" y="80" width="70" height="150" fill="#16345c"/>
  <rect x="255" y="20" width="100" height="210" fill="#0f2440"/>
  <g fill="#c8a862" opacity="0.85">
    <rect x="72" y="55" width="14" height="14"/><rect x="96" y="55" width="14" height="14"/><rect x="120" y="55" width="14" height="14"/>
    <rect x="72" y="80" width="14" height="14"/><rect x="96" y="80" width="14" height="14"/><rect x="120" y="80" width="14" height="14"/>
    <rect x="72" y="105" width="14" height="14"/><rect x="96" y="105" width="14" height="14"/><rect x="120" y="105" width="14" height="14"/>
    <rect x="72" y="130" width="14" height="14"/><rect x="96" y="130" width="14" height="14"/><rect x="120" y="130" width="14" height="14"/>
    <rect x="72" y="155" width="14" height="14"/><rect x="96" y="155" width="14" height="14"/><rect x="120" y="155" width="14" height="14"/>
  </g>
  <g fill="#e8d9b3" opacity="0.75">
    <rect x="182" y="95" width="12" height="12"/><rect x="204" y="95" width="12" height="12"/><rect x="226" y="95" width="12" height="12"/>
    <rect x="182" y="118" width="12" height="12"/><rect x="204" y="118" width="12" height="12"/><rect x="226" y="118" width="12" height="12"/>
    <rect x="182" y="141" width="12" height="12"/><rect x="204" y="141" width="12" height="12"/><rect x="226" y="141" width="12" height="12"/>
    <rect x="182" y="164" width="12" height="12"/><rect x="204" y="164" width="12" height="12"/><rect x="226" y="164" width="12" height="12"/>
  </g>
  <g fill="#c8a862" opacity="0.85">
    <rect x="268" y="36" width="14" height="14"/><rect x="292" y="36" width="14" height="14"/><rect x="316" y="36" width="14" height="14"/><rect x="340" y="36" width="14" height="14"/>
    <rect x="268" y="62" width="14" height="14"/><rect x="292" y="62" width="14" height="14"/><rect x="316" y="62" width="14" height="14"/><rect x="340" y="62" width="14" height="14"/>
    <rect x="268" y="88" width="14" height="14"/><rect x="292" y="88" width="14" height="14"/><rect x="316" y="88" width="14" height="14"/><rect x="340" y="88" width="14" height="14"/>
    <rect x="268" y="114" width="14" height="14"/><rect x="292" y="114" width="14" height="14"/><rect x="316" y="114" width="14" height="14"/><rect x="340" y="114" width="14" height="14"/>
    <rect x="268" y="140" width="14" height="14"/><rect x="292" y="140" width="14" height="14"/><rect x="316" y="140" width="14" height="14"/><rect x="340" y="140" width="14" height="14"/>
  </g>
</svg>
